<svg id="visual" viewBox="0 0 900 600" width="900" height="600" xmlns="http://www.w3.org/2000/svg" xmlns:xlink="http://www.w3.org/1999/xlink" version="1.1"><rect x="0" y="0" width="900" height="600" fill="#2A363B"></rect><path d="M0 404L30 408.8C60 413.7 120 423.3 180 417.3C240 411.3 300 389.7 360 380.8C420 372 480 376 540 386.3C600 396.7 660 413.3 720 408.7C780 404 840 378 870 365L900 352L900 601L870 601C840 601 780 601 720 601C660 601 600 601 540 601C480 601 420 601 360 601C300 601 240 601 180 601C120 601 60 601 30 601L0 601Z" fill="#ff847c"></path><path d="M0 441L30 436.2C60 431.3 120 421.7 180 424.2C240 426.7 300 441.3 360 446.2C420 451 480 446 540 445.8C600 445.7 660 450.3 720 446.5C780 442.7 840 430.3 870 424.2L900 418L900 601L870 601C840 601 780 601 720 601C660 601 600 601 540 601C480 601 420 601 360 601C300 601 240 601 180 601C120 601 60 601 30 601L0 601Z" fill="#fa7774"></path><path d="M0 468L30 464.7C60 461.3 120 454.7 180 449.8C240 445 300 442 360 442.3C420 442.7 480 446.3 540 455.3C600 464.3 660 478.7 720 484.7C780 490.7 840 488.3 870 487.2L900 486L900 601L870 601C840 601 780 601 720 601C660 601 600 601 540 601C480 601 420 601 360 601C300 601 240 601 180 601C120 601 60 601 30 601L0 601Z" fill="#f4696c"></path><path d="M0 518L30 518.5C60 519 120 520 180 524C240 528 300 535 360 537.5C420 540 480 538 540 532.3C600 526.7 660 517.3 720 517.2C780 517 840 526 870 530.5L900 535L900 601L870 601C840 601 780 601 720 601C660 601 600 601 540 601C480 601 420 601 360 601C300 601 240 601 180 601C120 601 60 601 30 601L0 601Z" fill="#ee5a65"></path><path d="M0 566L30 566.7C60 567.3 120 568.7 180 564.2C240 559.7 300 549.3 360 546.3C420 543.3 480 547.7 540 548C600 548.3 660 544.7 720 541.3C780 538 840 535 870 533.5L900 532L900 601L870 601C840 601 780 601 720 601C660 601 600 601 540 601C480 601 420 601 360 601C300 601 240 601 180 601C120 601 60 601 30 601L0 601Z" fill="#e84a5f"></path></svg>